<svg xmlns="http://www.w3.org/2000/svg" width="480" height="600" viewBox="0 0 480 600">
  <rect width="480" height="600" fill="#1a1a1a"/>
  <!-- Face -->
  <circle cx="240" cy="195" r="70" fill="#252525" stroke="#d4a853" stroke-width="1.5"/>
  <!-- Eyes with lashes -->
  <ellipse cx="218" cy="185" rx="6" ry="4" fill="#333"/>
  <ellipse cx="262" cy="185" rx="6" ry="4" fill="#333"/>
  <line x1="210" y1="180" x2="214" y2="176" stroke="#d4a853" stroke-width="0.8" opacity="0.6"/>
  <line x1="218" y1="178" x2="218" y2="174" stroke="#d4a853" stroke-width="0.8" opacity="0.6"/>
  <line x1="226" y1="180" x2="222" y2="176" stroke="#d4a853" stroke-width="0.8" opacity="0.6"/>
  <line x1="254" y1="180" x2="258" y2="176" stroke="#d4a853" stroke-width="0.8" opacity="0.6"/>
  <line x1="262" y1="178" x2="262" y2="174" stroke="#d4a853" stroke-width="0.8" opacity="0.6"/>
  <line x1="270" y1="180" x2="266" y2="176" stroke="#d4a853" stroke-width="0.8" opacity="0.6"/>
  <!-- Smile -->
  <path d="M225 215 Q240 230 255 215" fill="none" stroke="#444" stroke-width="1.5"/>
  <!-- Lips -->
  <ellipse cx="240" cy="216" rx="12" ry="3" fill="#3a2a2a" opacity="0.5"/>
  <!-- Long hair -->
  <path d="M170 180 Q165 120 200 95 Q240 75 280 95 Q315 120 310 180" fill="none" stroke="#333" stroke-width="2.5"/>
  <path d="M170 180 Q160 240 155 310 Q153 340 165 360" fill="none" stroke="#333" stroke-width="2"/>
  <path d="M310 180 Q320 240 325 310 Q327 340 315 360" fill="none" stroke="#333" stroke-width="2"/>
  <path d="M175 200 Q168 260 170 320" fill="none" stroke="#2a2a2a" stroke-width="1.5" opacity="0.6"/>
  <path d="M305 200 Q312 260 310 320" fill="none" stroke="#2a2a2a" stroke-width="1.5" opacity="0.6"/>
  <!-- Earrings -->
  <circle cx="170" cy="200" r="4" fill="none" stroke="#d4a853" stroke-width="1"/>
  <circle cx="310" cy="200" r="4" fill="none" stroke="#d4a853" stroke-width="1"/>
  <!-- Body / dress -->
  <path d="M205 265 Q200 270 190 340 L290 340 Q280 270 275 265 Z" fill="#252525" stroke="#333" stroke-width="1"/>
  <path d="M215 265 L240 280 L265 265" fill="none" stroke="#d4a853" stroke-width="0.8" opacity="0.5"/>
  <!-- Arms -->
  <path d="M190 290 Q170 310 160 345" fill="none" stroke="#333" stroke-width="2"/>
  <path d="M290 290 Q310 305 320 335" fill="none" stroke="#333" stroke-width="2"/>
  <!-- Tattoo machine in hand -->
  <circle cx="325" cy="340" r="6" fill="none" stroke="#d4a853" stroke-width="1" opacity="0.7"/>
  <path d="M325 340 L348 318 L352 322 L329 344Z" fill="none" stroke="#d4a853" stroke-width="1" opacity="0.7"/>
  <!-- Legs -->
  <line x1="220" y1="340" x2="215" y2="470" stroke="#333" stroke-width="2"/>
  <line x1="260" y1="340" x2="265" y2="470" stroke="#333" stroke-width="2"/>
  <!-- Shoes -->
  <ellipse cx="212" cy="475" rx="12" ry="5" fill="none" stroke="#333" stroke-width="1.5"/>
  <ellipse cx="268" cy="475" rx="12" ry="5" fill="none" stroke="#333" stroke-width="1.5"/>
  <!-- Label -->
  <text x="240" y="540" text-anchor="middle" fill="#555" font-family="sans-serif" font-size="16" letter-spacing="3">ANJI</text>
</svg>
