<svg xmlns="http://www.w3.org/2000/svg" width="480" height="600" viewBox="0 0 480 600">
  <rect width="480" height="600" fill="#1a1a1a"/>
  <circle cx="240" cy="200" r="70" fill="#252525" stroke="#d4a853" stroke-width="1.5"/>
  <circle cx="220" cy="190" r="5" fill="#333"/>
  <circle cx="260" cy="190" r="5" fill="#333"/>
  <path d="M225 215 Q240 228 255 215" fill="none" stroke="#444" stroke-width="1.5"/>
  <path d="M170 190 Q180 130 240 110 Q300 130 310 190" fill="none" stroke="#333" stroke-width="2"/>
  <rect x="200" y="270" width="80" height="120" rx="8" fill="#252525" stroke="#333" stroke-width="1"/>
  <line x1="200" y1="290" x2="170" y2="350" stroke="#333" stroke-width="2"/>
  <line x1="280" y1="290" x2="310" y2="340" stroke="#333" stroke-width="2"/>
  <circle cx="315" cy="345" r="8" fill="none" stroke="#d4a853" stroke-width="1" opacity="0.6"/>
  <path d="M315 345 L340 320 L345 325 L320 350Z" fill="none" stroke="#d4a853" stroke-width="1" opacity="0.6"/>
  <line x1="220" y1="390" x2="210" y2="480" stroke="#333" stroke-width="2"/>
  <line x1="260" y1="390" x2="270" y2="480" stroke="#333" stroke-width="2"/>
  <text x="240" y="540" text-anchor="middle" fill="#555" font-family="sans-serif" font-size="16" letter-spacing="3">MASTER</text>
</svg>
