<svg xmlns="http://www.w3.org/2000/svg" width="600" height="600" viewBox="0 0 600 600">
  <rect width="600" height="600" fill="#1a1a1a"/>
  <g opacity="0.9">
    <circle cx="280" cy="230" r="2" fill="#d4a853"/><circle cx="290" cy="225" r="1.5" fill="#d4a853"/>
    <circle cx="300" cy="220" r="2" fill="#d4a853"/><circle cx="310" cy="225" r="1.5" fill="#d4a853"/>
    <circle cx="320" cy="230" r="2" fill="#d4a853"/><circle cx="270" cy="240" r="1.5" fill="#d4a853"/>
    <circle cx="280" cy="245" r="2" fill="#d4a853"/><circle cx="290" cy="240" r="1.5" fill="#d4a853"/>
    <circle cx="300" cy="235" r="2" fill="#d4a853"/><circle cx="310" cy="240" r="1.5" fill="#d4a853"/>
    <circle cx="320" cy="245" r="2" fill="#d4a853"/><circle cx="330" cy="240" r="1.5" fill="#d4a853"/>
    <circle cx="270" cy="255" r="2" fill="#d4a853"/><circle cx="280" cy="260" r="1.5" fill="#d4a853"/>
    <circle cx="290" cy="255" r="2" fill="#d4a853"/><circle cx="300" cy="250" r="2" fill="#d4a853"/>
    <circle cx="310" cy="255" r="1.5" fill="#d4a853"/><circle cx="320" cy="260" r="2" fill="#d4a853"/>
    <circle cx="330" cy="255" r="1.5" fill="#d4a853"/><circle cx="265" cy="270" r="1.5" fill="#d4a853"/>
    <circle cx="275" cy="275" r="2" fill="#d4a853"/><circle cx="285" cy="270" r="1.5" fill="#d4a853"/>
    <circle cx="295" cy="265" r="2" fill="#d4a853"/><circle cx="305" cy="265" r="1.5" fill="#d4a853"/>
    <circle cx="315" cy="270" r="2" fill="#d4a853"/><circle cx="325" cy="275" r="1.5" fill="#d4a853"/>
    <circle cx="335" cy="270" r="2" fill="#d4a853"/>
  </g>
  <g opacity="0.5">
    <circle cx="260" cy="215" r="1" fill="#d4a853"/><circle cx="340" cy="215" r="1" fill="#d4a853"/>
    <circle cx="255" cy="285" r="1" fill="#d4a853"/><circle cx="345" cy="285" r="1" fill="#d4a853"/>
    <circle cx="300" cy="200" r="1.5" fill="#d4a853"/><circle cx="300" cy="300" r="1.5" fill="#d4a853"/>
    <circle cx="250" cy="250" r="1" fill="#d4a853"/><circle cx="350" cy="250" r="1" fill="#d4a853"/>
  </g>
  <circle cx="300" cy="250" r="80" fill="none" stroke="#d4a853" stroke-width="0.5" opacity="0.3"/>
  <text x="300" y="440" text-anchor="middle" fill="#555" font-family="sans-serif" font-size="18" letter-spacing="4">DOTWORK</text>
</svg>
